<?xml version="1.0" encoding="utf-8"?>
<svg version="1.1" xmlns:xlink="http://www.w3.org/1999/xlink" width="48px" height="41px" xmlns="http://www.w3.org/2000/svg">
  <g transform="matrix(1 0 0 1 -32 -122 )">
    <path d="M 41.100371747211895 23.424006235385814  C 41.12019826517968 23.46661470511821  41.13011152416357 23.53052740971681  41 23.615744349181604  L 41 38.954793452844896  C 41.13011152416357 39.50870355936607  40.94175960346965 39.988048843855545  40.56505576208178 40.392829306313324  C 40.18835192069393 40.79760976877111  39.74225526641884 41  39.226765799256505 41  L 27 41  L 27 28.72876071706937  L 21 28.72876071706937  L 21 41  L 8.773234200743495 41  C 8.257744733581166 41  7.811648079306073 40.79760976877111  7.434944237918215 40.392829306313324  C 7.05824039653036 39.988048843855545  6.869888475836431 39.50870355936607  7 38.954793452844896  L 7 23.615744349181604  C 6.869888475836431 23.594440114315404  6.874845105328378 23.562483762016107  6.884758364312267 23.51987529228371  C 6.894671623296159 23.47726682255131  6.899628252788105 23.445310470252014  6.899628252788105 23.424006235385814  L 24 8.276695245518315  L 41.100371747211895 23.424006235385814  Z M 47.97026022304833 20.659781761496497  C 47.990086741016114 20.94738893219018  47.92069392812888 21.197713691868017  47.762081784386616 21.41075604053001  L 45.9182156133829 23.7755261106781  C 45.75960346964065 23.967264224473894  45.55142503097893 24.084437516237983  45.29368029739777 24.127045985970383  L 45.20446096654275 24.127045985970383  C 44.94671623296159 24.127045985970383  44.73853779429988 24.052481163938683  44.57992565055762 23.90335151987529  L 24 5.4645362431800475  L 3.420074349442379 23.90335151987529  C 3.1821561338289963 24.07378539880488  2.9442379182156135 24.14835022083658  2.7063197026022303 24.127045985970383  C 2.448574969021066 24.084437516237983  2.240396530359356 23.967264224473894  2.0817843866171004 23.7755261106781  L 0.2379182156133829 21.41075604053001  C 0.07930607187112768 21.197713691868017  0.009913258983891025 20.94738893219018  0.02973977695167286 20.659781761496497  C 0.04956629491945491 20.372174590802807  0.15861214374225535 20.143154065991165  0.35687732342007433 19.972720187061576  L 21.739776951672862 0.8308651597817627  C 22.374225526641887 0.276955053260583  23.127633209417596 0  24 0  C 24.872366790582408 0  25.62577447335812 0.276955053260583  26.260223048327138 0.8308651597817627  L 33.51672862453532 7.349961028838657  L 33.51672862453532 1.1184723304754463  C 33.51672862453532 0.8202130423486576  33.605947955390334 0.5752143413873717  33.78438661710037 0.3834762275915842  C 33.962825278810406 0.1917381137957921  34.190830235439904 0.09586905689789604  34.468401486988846 0.09586905689789604  L 40.17843866171004 0.09586905689789604  C 40.45600991325899 0.09586905689789604  40.68401486988847 0.1917381137957921  40.86245353159851 0.3834762275915842  C 41.04089219330855 0.5752143413873717  41.13011152416357 0.8202130423486576  41 1.1184723304754463  L 41 14.156664068589244  L 47.64312267657992 19.972720187061576  C 47.84138785625775 20.143154065991165  47.95043370508055 20.372174590802807  47.97026022304833 20.659781761496497  Z " fill-rule="nonzero" fill="#ffffff" stroke="none" fill-opacity="0.6862745098039216" transform="matrix(1 0 0 1 32 122 )" />
  </g>
</svg>