<?xml version="1.0" encoding="utf-8"?>
<svg version="1.1" xmlns:xlink="http://www.w3.org/1999/xlink" width="50px" height="42px" xmlns="http://www.w3.org/2000/svg">
  <g transform="matrix(1 0 0 1 -34 -670 )">
    <path d="M 30.208333333333332 29  L 33.30078125 23  L 43.58723958333333 23  C 43.56553819444445 23.034375  43.53841145833333 22.941406249999996  43.505859375 22.82109375  C 43.47330729166667 22.700781249999995  43.44618055555556 22.618749999999995  43.42447916666667 22.575  L 36.5234375 7  L 13.4765625 7  L 6.575520833333333 22.575  C 6.553819444444446 22.640625  6.526692708333334 22.73359375  6.494140625 22.85390625  C 6.461588541666667 22.97421875  6.434461805555556 23.05625  6.412760416666667 23  L 16.69921875 23  L 19.791666666666664 29  L 30.208333333333332 29  Z M 49.18619791666667 20.0484375  C 49.728732638888886 21.382812499999996  50 22.728125  50 24.084375  L 50 39.9  C 50 40.46875  49.79383680555555 40.9609375  49.38151041666667 41.3765625  C 48.969184027777786 41.792187500000004  48.480902777777786 42  47.91666666666667 42  L 2.083333333333333 42  C 1.5190972222222223 42  1.030815972222222 41.792187500000004  0.6184895833333333 41.3765625  C 0.20616319444444445 40.9609375  0 40.46875  0 39.9  L 0 24.084375  C 0 22.728125  0.27126736111111105 21.382812499999996  0.8138020833333334 20.0484375  L 8.561197916666668 1.9359375000000019  C 8.778211805555557 1.3890624999999956  9.174262152777779 0.9296874999999984  9.749348958333332 0.5578125000000009  C 10.32443576388889 0.1859374999999941  10.894097222222223 0  11.458333333333332 0  L 38.54166666666667 0  C 39.105902777777786 0  39.675564236111114 0.1859374999999941  40.25065104166667 0.5578125000000009  C 40.82573784722223 0.9296874999999984  41.22178819444445 1.3890624999999956  41.43880208333333 1.9359375000000019  L 49.18619791666667 20.0484375  Z " fill-rule="nonzero" fill="#ffffff" stroke="none" fill-opacity="0.6862745098039216" transform="matrix(1 0 0 1 34 670 )" />
  </g>
</svg>