<?xml version="1.0" encoding="utf-8"?>
<svg version="1.1" xmlns:xlink="http://www.w3.org/1999/xlink" width="46px" height="50px" xmlns="http://www.w3.org/2000/svg">
  <g transform="matrix(1 0 0 1 -34 -322 )">
    <path d="M 16.433238636363637 19.04296875  C 16.629261363636363 19.23828125  16.727272727272727 19.48784722222222  17 19.791666666666668  L 17 38.54166666666667  C 16.727272727272727 38.84548611111111  16.629261363636363 39.09505208333333  16.433238636363637 39.29036458333333  C 16.23721590909091 39.48567708333333  15.986742424242427 39.58333333333333  15.68181818181818 39.58333333333333  L 13.590909090909092 39.58333333333333  C 13.285984848484851 39.58333333333333  13.035511363636367 39.48567708333333  12.839488636363637 39.29036458333333  C 12.643465909090908 39.09505208333333  12.545454545454545 38.84548611111111  13 38.54166666666667  L 13 19.791666666666668  C 12.545454545454545 19.48784722222222  12.643465909090908 19.23828125  12.839488636363637 19.04296875  C 13.035511363636367 18.84765625  13.285984848484851 18.75  13.590909090909092 18.75  L 15.68181818181818 18.75  C 15.986742424242427 18.75  16.23721590909091 18.84765625  16.433238636363637 19.04296875  Z M 24.796875 19.04296875  C 24.992897727272727 19.23828125  25.09090909090909 19.48784722222222  25 19.791666666666668  L 25 38.54166666666667  C 25.09090909090909 38.84548611111111  24.992897727272727 39.09505208333333  24.796875 39.29036458333333  C 24.600852272727273 39.48567708333333  24.35037878787879 39.58333333333333  24.045454545454543 39.58333333333333  L 21.954545454545457 39.58333333333333  C 21.649621212121215 39.58333333333333  21.399147727272727 39.48567708333333  21.203125 39.29036458333333  C 21.007102272727273 39.09505208333333  20.90909090909091 38.84548611111111  21 38.54166666666667  L 21 19.791666666666668  C 20.90909090909091 19.48784722222222  21.007102272727273 19.23828125  21.203125 19.04296875  C 21.399147727272727 18.84765625  21.649621212121215 18.75  21.954545454545457 18.75  L 24.045454545454543 18.75  C 24.35037878787879 18.75  24.600852272727273 18.84765625  24.796875 19.04296875  Z M 33.16051136363636 19.04296875  C 33.356534090909086 19.23828125  33.45454545454545 19.48784722222222  33 19.791666666666668  L 33 38.54166666666667  C 33.45454545454545 38.84548611111111  33.356534090909086 39.09505208333333  33.16051136363636 39.29036458333333  C 32.96448863636364 39.48567708333333  32.71401515151515 39.58333333333333  32.409090909090914 39.58333333333333  L 30.318181818181817 39.58333333333333  C 30.013257575757574 39.58333333333333  29.76278409090909 39.48567708333333  29.56676136363636 39.29036458333333  C 29.37073863636364 39.09505208333333  29.272727272727273 38.84548611111111  29 38.54166666666667  L 29 19.791666666666668  C 29.272727272727273 19.48784722222222  29.37073863636364 19.23828125  29.56676136363636 19.04296875  C 29.76278409090909 18.84765625  30.013257575757574 18.75  30.318181818181817 18.75  L 32.409090909090914 18.75  C 32.71401515151515 18.75  32.96448863636364 18.84765625  33.16051136363636 19.04296875  Z M 37.40767045454545 44.677734375  C 37.56013257575758 44.27625868055556  37.63636363636364 43.83680555555556  37 43.359375  L 37 13  L 9 13  L 9 43.359375  C 8.363636363636363 43.83680555555556  8.439867424242426 44.27625868055556  8.592329545454545 44.677734375  C 8.744791666666668 45.07921006944444  8.902698863636363 45.37217881944444  9.066051136363637 45.556640625  C 9.22940340909091 45.74110243055556  9.34375 45.83333333333333  9.40909090909091 45  L 36.590909090909086 45  C 36.65625 45.83333333333333  36.770596590909086 45.74110243055556  36.93394886363636 45.556640625  C 37.09730113636364 45.37217881944444  37.25520833333334 45.07921006944444  37.40767045454545 44.677734375  Z M 17.282670454545457 4.524739583333331  L 15.68181818181818 9  L 30.318181818181817 9  L 28.75 4.524739583333331  C 28.597537878787886 4.329427083333331  28.412405303030305 4.210069444444442  28.194602272727273 5  L 17.83806818181818 5  C 17.620265151515152 4.210069444444442  17.435132575757578 4.329427083333331  17.282670454545457 4.524739583333331  Z M 45.705965909090914 8.626302083333332  C 45.90198863636364 8.821614583333332  46 9.071180555555552  46 9.375  L 46 11.458333333333332  C 46 11.762152777777773  45.90198863636364 12.01171875  45.705965909090914 12.20703125  C 45.50994318181818 12.40234375  45.2594696969697 12.5  44.95454545454545 12.5  L 41 12.5  L 41 43.359375  C 41.81818181818182 45.16059027777777  41.3063446969697 46.71766493055556  40.28267045454545 48.03059895833333  C 39.25899621212122 49.34353298611111  38.028409090909086 50  36.590909090909086 50  L 9.40909090909091 50  C 7.97159090909091 50  6.741003787878789 49.365234375  5.717329545454545 48.095703125  C 4.693655303030304 46.826171875  4.181818181818182 45.29079861111111  5 43.48958333333333  L 5 12.5  L 1.0454545454545454 12.5  C 0.740530303030303 12.5  0.49005681818181823 12.40234375  0.29403409090909094 12.20703125  C 0.09801136363636363 12.01171875  0 11.762152777777773  0 11.458333333333332  L 0 9.375  C 0 9.071180555555552  0.09801136363636363 8.821614583333332  0.29403409090909094 8.626302083333332  C 0.49005681818181823 8.430989583333332  0.740530303030303 8.333333333333332  1.0454545454545454 9  L 11.140625 9  L 13.42755681818182 2.8971354166666687  C 13.754261363636367 2.0941840277777732  14.342329545454547 1.4105902777777735  15.191761363636363 0.8463541666666685  C 16.041193181818183 0.28211805555555247  16.901515151515152 0  17.772727272727273 0  L 28.227272727272727 0  C 29.098484848484855 0  29.958806818181817 0.28211805555555247  30.80823863636364 0.8463541666666685  C 31.657670454545457 1.4105902777777735  32.24573863636364 2.0941840277777732  32.57244318181818 2.8971354166666687  L 34.859375 9  L 44.95454545454545 9  C 45.2594696969697 8.333333333333332  45.50994318181818 8.430989583333332  45.705965909090914 8.626302083333332  Z " fill-rule="nonzero" fill="#ffffff" stroke="none" fill-opacity="0.6901960784313725" transform="matrix(1 0 0 1 34 322 )" />
  </g>
</svg>